<svg width="40" height="40" viewBox="0 0 40 40" fill="none" xmlns="http://www.w3.org/2000/svg">
<path d="M38.7828 3.47266H37.5203C36.8487 3.47266 36.3023 4.01867 36.3023 4.68984V4.89039L34.853 5.34328C34.3734 5.4932 34.0114 5.8582 33.858 6.31344L29.1091 6.3132V5.00539C29.1091 4.33414 28.5631 3.78805 27.8919 3.78805H26.6291C25.9579 3.78805 25.4119 4.33414 25.4119 5.00539V6.31328H24.0584V5.00539C24.0584 4.33414 23.5123 3.78805 22.8411 3.78805H21.5784C20.9071 3.78805 20.3611 4.33414 20.3611 5.00539V6.31328H19.0076V5.00539C19.0076 4.33414 18.4616 3.78805 17.7903 3.78805H16.5276C15.8563 3.78805 15.3103 4.33414 15.3103 5.00539V6.31328H15.107C6.77695 6.31328 0 13.0903 0 21.4203C0 29.7503 6.77695 36.5273 15.107 36.5273C18.2505 36.5273 21.2671 35.5663 23.8304 33.7483C24.0944 33.5611 24.1566 33.1953 23.9693 32.9313C23.7821 32.6674 23.4164 32.6052 23.1524 32.7923C20.7883 34.4691 18.0063 35.3555 15.107 35.3555C7.4232 35.3555 1.17188 29.1042 1.17188 21.4203C1.17188 13.7364 7.4232 7.48516 15.107 7.48516H31.2516V13.2586L15.1071 13.2584C15.1055 13.2584 15.1038 13.2587 15.1022 13.2587C13.0362 13.2599 11.0643 14.0375 9.54914 15.4486C9.31234 15.6691 9.29914 16.0399 9.51969 16.2767C9.74023 16.5135 10.1111 16.5268 10.3478 16.3062C11.6466 15.0966 13.3368 14.4305 15.1071 14.4305C18.9617 14.4305 22.0977 17.5662 22.0977 21.4204C22.0977 25.275 18.9616 28.411 15.1071 28.411C11.2524 28.411 8.11648 25.275 8.11648 21.4204C8.11648 20.3321 8.36055 19.2899 8.8418 18.3229C8.98602 18.0332 8.86805 17.6815 8.57836 17.5373C8.28875 17.3931 7.93688 17.5111 7.79266 17.8008C7.22984 18.9314 6.94453 20.1492 6.94453 21.4203C6.94453 25.9211 10.6062 29.5828 15.107 29.5828C19.6078 29.5828 23.2695 25.9211 23.2695 21.4203C23.2695 18.4588 21.6837 15.8609 19.3167 14.4302H27.156C28.3898 16.55 29.0421 18.9591 29.0421 21.4203C29.0421 25.038 27.6565 28.4689 25.1405 31.081C24.9159 31.3141 24.9229 31.685 25.1559 31.9095C25.389 32.134 25.7599 32.127 25.9844 31.894C28.7119 29.0623 30.214 25.3427 30.214 21.4203C30.214 18.9777 29.6229 16.5816 28.4966 14.4305L33.858 14.4303C34.0113 14.8856 34.3734 15.2506 34.853 15.4005L36.3023 15.8534V16.0539C36.3023 16.7251 36.8487 17.2711 37.5203 17.2711H38.7828C39.454 17.2711 40 16.7251 40 16.0539V4.68984C40 4.01867 39.454 3.47266 38.7828 3.47266ZM17.8357 6.31328H16.4822V5.00539C16.4822 4.98031 16.5026 4.95992 16.5276 4.95992H17.7903C17.8153 4.95992 17.8357 4.98031 17.8357 5.00539V6.31328ZM22.8865 6.31328H21.533V5.00539C21.533 4.98031 21.5534 4.95992 21.5784 4.95992H22.8411C22.8661 4.95992 22.8865 4.98031 22.8865 5.00539V6.31328ZM27.9373 6.31328H26.5838V5.00539C26.5838 4.98031 26.6042 4.95992 26.6292 4.95992H27.892C27.917 4.95992 27.9373 4.98031 27.9373 5.00539V6.31328ZM33.7773 13.2584H32.4234V7.48539H33.7773V13.2584ZM38.8281 16.0539C38.8281 16.0793 38.8082 16.0992 38.7828 16.0992H37.5203C37.4945 16.0992 37.4742 16.0794 37.4742 16.0539V10.0875C37.4742 9.76391 37.212 9.50156 36.8883 9.50156C36.5646 9.50156 36.3023 9.76391 36.3023 10.0875V14.6255L35.2026 14.2819C35.0511 14.2345 34.9492 14.096 34.9492 13.9372V6.80656C34.9492 6.64773 35.0511 6.50922 35.2026 6.46187L36.3023 6.1182V7.35312C36.3023 7.67672 36.5646 7.93906 36.8883 7.93906C37.212 7.93906 37.4742 7.67672 37.4742 7.35312V4.68984C37.4742 4.66484 37.4949 4.64453 37.5203 4.64453H38.7828C38.8078 4.64453 38.8281 4.66484 38.8281 4.68984V16.0539Z" fill="white"/>
<path d="M26.9446 21.4206C26.9446 20.9847 26.5913 20.6313 26.1554 20.6313C25.7196 20.6313 25.3662 20.9847 25.3662 21.4206C25.3662 21.8564 25.7196 22.2098 26.1554 22.2098C26.5914 22.2098 26.9446 21.8564 26.9446 21.4206Z" fill="white"/>
<path d="M4.05875 22.2098C4.49462 22.2098 4.84797 21.8564 4.84797 21.4206C4.84797 20.9847 4.49462 20.6313 4.05875 20.6313C3.62288 20.6313 3.26953 20.9847 3.26953 21.4206C3.26953 21.8564 3.62288 22.2098 4.05875 22.2098Z" fill="white"/>
<path d="M15.1066 33.2584C15.5425 33.2584 15.8958 32.905 15.8958 32.4691C15.8958 32.0333 15.5425 31.6799 15.1066 31.6799C14.6707 31.6799 14.3174 32.0333 14.3174 32.4691C14.3174 32.905 14.6707 33.2584 15.1066 33.2584Z" fill="white"/>
<path d="M15.1066 11.1612C15.5425 11.1612 15.8958 10.8079 15.8958 10.372C15.8958 9.93611 15.5425 9.58276 15.1066 9.58276C14.6707 9.58276 14.3174 9.93611 14.3174 10.372C14.3174 10.8079 14.6707 11.1612 15.1066 11.1612Z" fill="white"/>
<path d="M26.9446 10.3719C26.9446 9.936 26.5913 9.58264 26.1554 9.58264C25.7196 9.58264 25.3662 9.936 25.3662 10.3719C25.3662 10.8077 25.7196 11.1611 26.1554 11.1611C26.5914 11.1611 26.9446 10.8077 26.9446 10.3719Z" fill="white"/>
<path d="M15.1074 27.0574C18.2155 27.0574 20.7441 24.5287 20.7441 21.4207C20.7441 18.3126 18.2155 15.7839 15.1074 15.7839C11.9993 15.7839 9.4707 18.3126 9.4707 21.4207C9.4707 24.5287 11.9993 27.0574 15.1074 27.0574ZM15.1074 25.8855C14.2701 25.8855 13.4862 25.6534 12.8158 25.2507C13.5859 24.6192 14.2159 23.8664 14.6813 23.2191C14.8182 23.2515 14.9608 23.2692 15.1074 23.2692C15.382 23.2692 15.6425 23.2086 15.877 23.1008C16.3615 23.7005 16.8952 24.4792 17.2453 25.3392C16.6101 25.6873 15.8815 25.8855 15.1074 25.8855ZM14.4306 21.4207C14.4306 21.0475 14.7343 20.7439 15.1074 20.7439C15.4805 20.7439 15.7841 21.0475 15.7841 21.4207C15.7841 21.7939 15.4805 22.0975 15.1074 22.0975C14.7343 22.0975 14.4306 21.7938 14.4306 21.4207ZM18.2133 24.6239C17.8027 23.7169 17.2387 22.9143 16.7343 22.2978C16.7748 22.2231 16.81 22.1453 16.84 22.0649C17.607 22.1464 18.5352 22.32 19.3902 22.6802C19.1698 23.4281 18.7588 24.0946 18.2133 24.6239ZM19.5723 21.4207C19.5723 21.4441 19.5709 21.4672 19.5705 21.4906C18.6389 21.1393 17.6718 20.9703 16.8783 20.8908C16.7589 20.4927 16.5087 20.1508 16.1778 19.915C16.4542 19.1959 16.8616 18.3444 17.432 17.6103C18.7146 18.3956 19.5723 19.8097 19.5723 21.4207ZM15.1074 16.9558C15.5314 16.9558 15.9413 17.0165 16.3301 17.1274C15.7486 17.9375 15.3353 18.8278 15.0539 19.5734C14.9673 19.5759 14.8823 19.5842 14.7991 19.5982C14.4861 18.8927 14.1722 18.0019 14.0568 17.0818C14.394 17.0002 14.7455 16.9558 15.1074 16.9558ZM12.9365 17.521C13.0981 18.5033 13.4355 19.4259 13.7636 20.1532C13.4884 20.4447 13.3067 20.8252 13.2672 21.2466C12.5063 21.3667 11.5658 21.4397 10.6453 21.3128C10.6842 19.6839 11.599 18.2686 12.9365 17.521ZM11.6622 22.5509C12.3398 22.5509 12.9837 22.4808 13.5344 22.3903C13.5795 22.4632 13.6294 22.5329 13.6838 22.5986C13.2302 23.2214 12.6165 23.9378 11.8775 24.4984C11.3536 23.9489 10.9677 23.2671 10.777 22.508C11.0749 22.5377 11.3716 22.5509 11.6622 22.5509Z" fill="white"/>
</svg>
