<svg width="65" height="66" viewBox="0 0 65 66" fill="none" xmlns="http://www.w3.org/2000/svg">
<g clip-path="url(#clip0_272_716)">
<path d="M23.6913 54.8483C20.6711 53.6316 17.9119 51.7808 15.5726 49.3603C15.2071 48.9822 14.6044 48.9718 14.2263 49.3372C13.8481 49.7027 13.8378 50.3054 14.2032 50.6835C19.041 55.6896 25.539 58.4464 32.5002 58.4464C46.5314 58.4464 57.9467 47.0312 57.9467 33C57.9467 18.9687 46.5314 7.55347 32.5002 7.55347C18.469 7.55347 7.05371 18.9687 7.05371 33C7.05371 38.0405 8.5256 42.9142 11.3103 47.0942C11.6018 47.5318 12.1928 47.65 12.6305 47.3587C13.0681 47.0671 13.1866 46.476 12.895 46.0384C10.3193 42.1722 8.95801 37.6634 8.95801 33C8.95801 31.8919 9.03672 30.8021 9.18551 29.7345C11.0253 29.4854 12.9201 29.7917 14.5875 30.6205L22.1493 34.3817C22.2112 34.8489 22.3043 35.3106 22.4286 35.7633C22.568 36.2704 23.0916 36.5689 23.599 36.4293C24.1061 36.2899 24.4043 35.766 24.265 35.259C24.0643 34.5282 23.9625 33.7683 23.9625 33C23.9625 28.2923 27.7924 24.4624 32.5001 24.4624C37.2077 24.4624 41.0377 28.2923 41.0377 33C41.0377 37.7076 37.2077 41.5375 32.5001 41.5375C30.1009 41.5375 27.7987 40.5193 26.184 38.7438C25.8302 38.3547 25.2281 38.3263 24.839 38.68C24.45 39.0338 24.4214 39.636 24.7751 40.025C25.1996 40.4918 25.6631 40.9155 26.1581 41.2934L25.6351 49.7137C25.5192 51.578 24.8331 53.3774 23.6913 54.8483ZM25.3253 25.4243L17.4484 20.8766C16.9927 20.6138 16.4105 20.7695 16.1477 21.225C15.8848 21.6804 16.0409 22.2628 16.4962 22.5257L24.0447 26.8837C23.6154 27.4757 23.2468 28.114 22.9477 28.7902L15.3966 24.4305C14.9408 24.1677 14.3587 24.3235 14.0959 24.779C13.833 25.2344 13.989 25.8167 14.4444 26.0796L22.3321 30.6335C22.2118 31.1506 22.1303 31.6822 22.0902 32.2253L15.4355 28.9152C13.612 28.0087 11.5626 27.6193 9.54225 27.7799C10.6062 23.098 13.07 18.9427 16.4682 15.7772C17.3391 17.6087 18.7018 19.1902 20.3999 20.317L26.5721 24.4107C26.1304 24.7165 25.7142 25.0559 25.3253 25.4243ZM28.4543 23.3741L21.4526 18.7302C19.8969 17.6979 18.682 16.2049 17.9789 14.4818C21.9819 11.336 27.0259 9.45776 32.5002 9.45776C37.9592 9.45776 42.9897 11.3259 46.9873 14.4557C46.2845 16.1811 45.0688 17.6759 43.5116 18.7092L36.5034 23.3574C35.2698 22.8433 33.9178 22.5581 32.5001 22.5581C31.0664 22.5581 29.6992 22.8489 28.4543 23.3741ZM38.3956 24.3875L44.5644 20.296C46.2652 19.1675 47.6295 17.5825 48.5001 15.7474C51.9106 18.9125 54.3849 23.0727 55.4545 27.7622C53.4237 27.5948 51.3619 27.983 49.5287 28.8945L42.9076 32.188C42.8655 31.6449 42.7821 31.1136 42.6599 30.5967L50.5198 26.0589C50.9752 25.796 51.1312 25.2137 50.8683 24.7583C50.6055 24.3029 50.0228 24.147 49.5676 24.4098L42.0377 28.7572C41.7362 28.0823 41.366 27.4449 40.9346 26.8544L48.4679 22.5051C48.9232 22.2422 49.0793 21.6599 48.8163 21.2045C48.5535 20.749 47.971 20.5933 47.5157 20.856L39.6477 25.3981C39.257 25.0306 38.8391 24.692 38.3956 24.3875ZM42.853 34.3417L50.3765 30.5995C52.0543 29.7653 53.9625 29.4608 55.8127 29.7183C55.963 30.7912 56.0425 31.8864 56.0425 33C56.0425 42.872 49.9339 51.3429 41.2988 54.8351C40.1631 53.3668 39.481 51.5726 39.3652 49.714L38.8418 41.2878C40.9964 39.635 42.4891 37.1634 42.853 34.3417ZM29.4961 42.998V52.1082C29.4961 52.6341 29.9223 53.0603 30.4483 53.0603C30.9742 53.0603 31.4004 52.6341 31.4004 52.1082V43.3832C31.7641 43.4219 32.1313 43.4417 32.5002 43.4417C32.8717 43.4417 33.2384 43.4214 33.6 43.3834V52.1082C33.6 52.6341 34.0262 53.0603 34.5521 53.0603C35.0781 53.0603 35.5043 52.6341 35.5043 52.1082V42.9993C36.022 42.8435 36.5235 42.6499 37.0041 42.4191L37.4646 49.8319C37.5911 51.8638 38.2782 53.8328 39.4268 55.5016C37.2359 56.1774 34.9099 56.542 32.5002 56.542C30.1109 56.542 27.7811 56.1902 25.5664 55.512C26.7193 53.841 27.4091 51.8679 27.5359 49.8316L27.9965 42.4175C28.4804 42.6492 28.9818 42.8431 29.4961 42.998Z" fill="#E8092E"/>
<path d="M32.4995 39.3384C35.9944 39.3384 38.8379 36.495 38.8379 33C38.8379 29.505 35.9944 26.6616 32.4995 26.6616C29.0046 26.6616 26.1611 29.5051 26.1611 33C26.1611 36.4949 29.0046 39.3384 32.4995 39.3384ZM32.4995 28.5659C34.9445 28.5659 36.9336 30.555 36.9336 33C36.9336 35.445 34.9445 37.4341 32.4995 37.4341C30.0545 37.4341 28.0654 35.445 28.0654 33C28.0654 30.555 30.0545 28.5659 32.4995 28.5659Z" fill="#E8092E"/>
<path d="M61.374 18.068C59.0789 13.6388 55.7346 9.73432 51.7024 6.77694C51.2788 6.46604 50.6827 6.55744 50.3716 6.98159C50.0607 7.40562 50.1522 8.00141 50.5762 8.31244C54.373 11.0975 57.5222 14.7738 59.6831 18.9441C61.9475 23.3141 63.0957 28.0431 63.0957 33C63.0957 41.1722 59.9132 48.8556 54.1343 54.6343C48.3554 60.4131 40.6722 63.5957 32.5 63.5957C24.3278 63.5957 16.6444 60.4132 10.8657 54.6343C5.08688 48.8554 1.9043 41.1722 1.9043 33C1.9043 24.8278 5.08676 17.1444 10.8657 11.3657C16.6446 5.58688 24.3278 2.4043 32.5 2.4043C37.5342 2.4043 42.5241 3.65275 46.9303 6.01484C47.394 6.26342 47.9709 6.08886 48.2193 5.62561C48.4678 5.1621 48.2935 4.58497 47.8301 4.33652C43.1481 1.82666 37.847 0.5 32.5 0.5C23.8191 0.5 15.6576 3.88064 9.51907 10.0191C3.38051 16.1575 0 24.3191 0 33C0 41.6809 3.38064 49.8424 9.51907 55.9809C15.6575 62.1195 23.8191 65.5 32.5 65.5C41.1809 65.5 49.3424 62.1194 55.4809 55.9809C61.6195 49.8425 65 41.6809 65 33C65 27.8094 63.7461 22.646 61.374 18.068Z" fill="#E8092E"/>
</g>
<defs>
<clipPath id="clip0_272_716">
<rect width="65" height="65" fill="white" transform="translate(0 0.5)"/>
</clipPath>
</defs>
</svg>
