<svg width="40" height="40" viewBox="0 0 40 40" fill="none" xmlns="http://www.w3.org/2000/svg">
<g clip-path="url(#clip0_254_15)">
<path d="M39.2109 17.0828V9.74063C39.2109 8.54742 38.2402 7.57664 37.0469 7.57664H35.4127L33.3105 1.46141C33.0105 0.587344 32.1881 0 31.2641 0H16.0906C15.767 0 15.5047 0.262266 15.5047 0.585938C15.5047 0.909609 15.767 1.17188 16.0906 1.17188H31.2641C31.6877 1.17188 32.0646 1.44102 32.2022 1.84203L34.3309 8.03437C34.4791 8.46148 34.8818 8.74852 35.3328 8.74852H37.0469C37.594 8.74852 38.0391 9.19359 38.0391 9.74063V10.812H36.6609C36.0282 10.812 35.5134 11.3267 35.5134 11.9595V13.3618C35.5134 13.9945 36.0282 14.5093 36.6609 14.5093H38.0391V17.0466H36.482C35.7493 15.2438 33.9796 13.9688 31.9167 13.9688C30.3609 13.9688 28.9197 14.6975 27.9964 15.9114C25.9374 13.8819 23.1127 12.6272 20 12.6272C16.8873 12.6272 14.0626 13.8819 12.0036 15.9114C11.0802 14.6975 9.63898 13.9688 8.08328 13.9688C6.02039 13.9688 4.2507 15.2438 3.51797 17.0466H1.96094V14.5093H3.33906C3.9718 14.5093 4.48656 13.9945 4.48656 13.3618V11.9595C4.48656 11.3267 3.9718 10.812 3.33906 10.812H1.97219C2.02953 10.4241 2.31258 10.0998 2.70062 9.99789L7.30727 8.78563C7.61375 8.70391 7.8657 8.49188 7.99906 8.20273L10.9563 1.75078C11.1172 1.39914 11.4713 1.17188 11.8586 1.17188H13.3563C13.6799 1.17188 13.9422 0.909609 13.9422 0.585938C13.9422 0.262266 13.6799 0 13.3563 0H11.8586C11.0142 0 10.2418 0.495859 9.89078 1.26289L6.95578 7.66641L2.40273 8.86453C1.45258 9.11406 0.789062 9.97461 0.789062 10.957V17.0828C0.335625 17.2028 0 17.6153 0 18.1059V19.6843C0 20.2685 0.475234 20.7438 1.05945 20.7438H3.51805C4.25078 22.5467 6.02047 23.8216 8.08336 23.8216C8.25836 23.8216 8.4325 23.8121 8.60516 23.7939C8.60359 23.8708 8.60219 23.9477 8.60219 24.0249C8.60219 29.4582 12.4238 34.0149 17.52 35.1502V39.4141C17.52 39.7377 17.7823 40 18.1059 40C18.4296 40 18.6919 39.7377 18.6919 39.4141V35.3472C19.1213 35.3965 19.5576 35.4227 20 35.4227C20.4424 35.4227 20.8787 35.3965 21.3081 35.3472V39.4141C21.3081 39.7377 21.5704 40 21.8941 40C22.2177 40 22.48 39.7377 22.48 39.4141V35.1502C27.5762 34.0149 31.3978 29.4581 31.3978 24.0249C31.3978 23.9477 31.3964 23.8708 31.3948 23.7939C31.5675 23.8121 31.7416 23.8216 31.9166 23.8216C33.9795 23.8216 35.7492 22.5466 36.482 20.7438H38.9405C39.5248 20.7438 40 20.2685 40 19.6843V18.1059C40 17.6153 39.6644 17.2028 39.2109 17.0828ZM36.6854 13.3373V11.9838H38.0391V13.3373H36.6854ZM3.31461 13.3373H1.96094V11.9838H3.31461V13.3373ZM1.17188 19.572V18.2184H3.20437C3.17383 18.4398 3.15672 18.6655 3.15672 18.8952C3.15672 19.1248 3.17375 19.3505 3.20437 19.572H1.17188ZM8.08328 22.6498C6.01297 22.6498 4.32859 20.9654 4.32859 18.8951C4.32859 16.8248 6.01297 15.1405 8.08328 15.1405C9.34117 15.1405 10.5013 15.7652 11.1959 16.7941C10.7102 17.3845 10.283 18.0248 9.92227 18.7055C9.82703 17.7749 9.03859 17.0464 8.08336 17.0464C7.06398 17.0464 6.23469 17.8757 6.23469 18.895C6.23469 19.9144 7.06398 20.7437 8.08336 20.7437C8.50523 20.7437 8.89437 20.6012 9.20586 20.3624C8.96219 21.0787 8.78805 21.8268 8.69133 22.5987C8.49156 22.6313 8.28852 22.6498 8.08328 22.6498ZM8.76 18.8951C8.76 19.2682 8.45641 19.5719 8.08328 19.5719C7.71016 19.5719 7.40648 19.2682 7.40648 18.8951C7.40648 18.522 7.71016 18.2184 8.08328 18.2184C8.45641 18.2184 8.76 18.522 8.76 18.8951ZM20 34.2508C14.3613 34.2508 9.77398 29.6634 9.77398 24.0248C9.77398 18.3862 14.3613 13.7988 20 13.7988C25.6387 13.7988 30.226 18.3862 30.226 24.0248C30.226 29.6634 25.6387 34.2508 20 34.2508ZM31.9167 22.6498C31.7115 22.6498 31.5084 22.6313 31.3088 22.5988C31.212 21.827 31.038 21.0788 30.7943 20.3625C31.1058 20.6013 31.4948 20.7437 31.9168 20.7437C32.9362 20.7437 33.7655 19.9145 33.7655 18.8951C33.7655 17.8758 32.9362 17.0465 31.9168 17.0465C30.9615 17.0465 30.1731 17.7749 30.0779 18.7055C29.7172 18.0248 29.29 17.3846 28.8042 16.7941C29.4988 15.7653 30.6589 15.1405 31.9169 15.1405C33.9872 15.1405 35.6716 16.8248 35.6716 18.8952C35.6716 20.9655 33.987 22.6498 31.9167 22.6498ZM31.24 18.8951C31.24 18.522 31.5436 18.2184 31.9167 18.2184C32.2898 18.2184 32.5935 18.522 32.5935 18.8951C32.5935 19.2682 32.2898 19.5719 31.9167 19.5719C31.5436 19.5719 31.24 19.2683 31.24 18.8951ZM38.8281 19.572H36.7956C36.8262 19.3505 36.8433 19.1248 36.8433 18.8952C36.8433 18.6655 36.8263 18.4398 36.7956 18.2184H38.8281V19.572Z" fill="#F4F4F4"/>
<path d="M32.5579 8.31654C32.7567 8.04591 32.8155 7.6931 32.7154 7.37294L31.4334 3.26912C31.2946 2.82451 30.8881 2.52576 30.4218 2.52576H22.9647C22.3805 2.52576 21.9053 3.00099 21.9053 3.58513V7.68826C21.9053 8.27279 22.3805 8.74841 22.9647 8.74841H25.9904C26.3141 8.74841 26.5764 8.48615 26.5764 8.16248C26.5764 7.8388 26.3141 7.57654 25.9904 7.57654H23.0771V3.69763H30.3396L31.5512 7.57654H28.7248C28.4011 7.57654 28.1389 7.8388 28.1389 8.16248C28.1389 8.48615 28.4011 8.74841 28.7248 8.74841H31.7046C32.0401 8.74841 32.3591 8.58701 32.5579 8.31654Z" fill="#F4F4F4"/>
<path d="M20.5524 7.68867V3.58484C20.5524 3.00063 20.0771 2.52539 19.4929 2.52539H12.5293C12.1004 2.52539 11.7164 2.78117 11.5513 3.17734L9.84153 7.28125C9.70496 7.60891 9.74106 7.98094 9.93793 8.27633C10.1349 8.57164 10.4644 8.74805 10.8194 8.74805H19.4929C20.0771 8.74812 20.5524 8.27289 20.5524 7.68867ZM19.3805 7.57625H10.9882L12.6043 3.69734H19.3806V7.57625H19.3805Z" fill="#F4F4F4"/>
<path d="M16.7646 10.0227C16.441 10.0227 16.1787 10.285 16.1787 10.6086C16.1787 10.9323 16.441 11.1946 16.7646 11.1946H18.343C18.6667 11.1946 18.9289 10.9323 18.9289 10.6086C18.9289 10.285 18.6667 10.0227 18.343 10.0227H16.7646Z" fill="#F4F4F4"/>
<path d="M28.9971 10.0227C28.6734 10.0227 28.4111 10.285 28.4111 10.6086C28.4111 10.9323 28.6734 11.1946 28.9971 11.1946H30.5754C30.8991 11.1946 31.1614 10.9323 31.1614 10.6086C31.1614 10.285 30.8991 10.0227 30.5754 10.0227H28.9971Z" fill="#F4F4F4"/>
<path d="M19.9996 15.1523C18.743 15.1523 17.5291 15.4106 16.3914 15.9198C16.0961 16.0521 15.9638 16.3988 16.096 16.6941C16.2283 16.9894 16.5751 17.1216 16.8702 16.9895C17.8563 16.548 18.9091 16.3241 19.9996 16.3241C24.2459 16.3241 27.7004 19.7787 27.7004 24.0248C27.7004 28.271 24.2458 31.7256 19.9996 31.7256C15.7534 31.7256 12.2988 28.271 12.2988 24.0248C12.2988 21.8973 13.1952 19.8431 14.7581 18.389C14.9951 18.1686 15.0084 17.7978 14.788 17.5609C14.5677 17.3239 14.1969 17.3105 13.9599 17.5309C12.1595 19.2059 11.127 21.5729 11.127 24.0248C11.127 28.9172 15.1072 32.8974 19.9996 32.8974C24.892 32.8974 28.8723 28.9172 28.8723 24.0248C28.8723 19.1326 24.892 15.1523 19.9996 15.1523Z" fill="#F4F4F4"/>
<path d="M20.0004 30.3718C23.5001 30.3718 26.3474 27.5246 26.3474 24.0248C26.3474 20.5251 23.5001 17.6777 20.0004 17.6777C16.5006 17.6777 13.6533 20.525 13.6533 24.0248C13.6533 27.5245 16.5006 30.3718 20.0004 30.3718ZM20.0004 18.8496C22.8539 18.8496 25.1755 21.1712 25.1755 24.0248C25.1755 26.8783 22.8539 29.1998 20.0004 29.1998C17.1468 29.1998 14.8252 26.8783 14.8252 24.0248C14.8252 21.1712 17.1468 18.8496 20.0004 18.8496Z" fill="#F4F4F4"/>
<path d="M18.5653 26.2923C18.6798 26.4067 18.8298 26.4639 18.9797 26.4639C19.1296 26.4639 19.2796 26.4067 19.3941 26.2923L22.9288 22.7576C23.1577 22.5287 23.1577 22.1577 22.9288 21.9289C22.6999 21.7001 22.329 21.7001 22.1002 21.9289L18.9798 25.0494L17.8177 23.8872C17.5888 23.6584 17.2178 23.6584 16.989 23.8872C16.7602 24.1161 16.7602 24.487 16.989 24.7158L18.5653 26.2923Z" fill="#F4F4F4"/>
</g>
<defs>
<clipPath id="clip0_254_15">
<rect width="40" height="40" rx="5" fill="white"/>
</clipPath>
</defs>
</svg>
