<svg width="60" height="60" viewBox="0 0 60 60" fill="none" xmlns="http://www.w3.org/2000/svg">
<g clip-path="url(#clip0_335_7)">
<path d="M8.29415 24.465C8.96294 25.1354 9.92482 25.464 10.8701 25.3427L16.303 24.6327C16.4408 24.615 16.5757 24.6608 16.6735 24.7588L21.9152 30.0005L20.7569 31.1589C20.5841 31.3194 20.4759 31.5487 20.4759 31.8034C20.4759 32.2888 20.87 32.6823 21.3554 32.6823C21.5885 32.6823 21.8121 32.5897 21.977 32.4248L36.4855 17.9151C36.9641 17.4363 37.1978 16.7495 37.1105 16.0775L36.4015 10.6416C36.349 10.2382 36.4895 9.82555 36.7771 9.53786L44.1697 2.1452C44.4926 1.82152 44.9522 1.68992 45.3995 1.79246L49.9778 2.84938C50.2066 2.90223 50.2813 3.08258 50.3028 3.1577C50.3243 3.23258 50.3562 3.42418 50.1903 3.58977L44.6382 9.14188C44.2072 9.5729 44.0318 10.1856 44.1689 10.7813L44.868 13.8111C45.0173 14.4642 45.5358 14.9826 46.1869 15.1313L49.2189 15.8311C49.8142 15.9682 50.4268 15.7926 50.8577 15.3617L56.4104 9.80903C56.5755 9.64368 56.7672 9.67555 56.842 9.697C56.9171 9.71856 57.0975 9.79321 57.1504 10.0221L58.2071 14.5995C58.31 15.0472 58.1783 15.5072 57.8538 15.8307L54.5048 19.1809C54.3316 19.3414 54.2234 19.571 54.2234 19.8259C54.2234 20.3113 54.6175 20.7048 55.1029 20.7048C55.3361 20.7048 55.5595 20.6121 55.7244 20.4473L59.096 17.0744C59.8516 16.3207 60.1597 15.2483 59.92 14.2051L58.8629 9.62669C58.683 8.84774 58.0941 8.22712 57.3257 8.00716C56.5464 7.78426 55.7389 7.99333 55.1668 8.56661L49.6135 14.1183L46.5811 13.4176L45.881 10.3849L51.4327 4.83325C52.0063 4.26043 52.2156 3.45313 51.9926 2.67383C51.7726 1.90555 51.152 1.31645 50.373 1.13668L45.7941 0.079648C44.752 -0.159649 43.6795 0.148203 42.9262 0.902891L35.5343 8.29497C34.8636 8.96563 34.5362 9.92763 34.6585 10.8685L35.3675 16.3044C35.385 16.439 35.3383 16.5766 35.2426 16.6725L30.0005 21.915L24.7591 16.6736C24.6612 16.5756 24.6152 16.4406 24.6328 16.3039L25.3433 10.8679C25.464 9.92528 25.1359 8.96329 24.466 8.29508L22.4177 6.24664C22.0745 5.90329 21.5181 5.9034 21.1748 6.24653C20.8316 6.58989 20.8316 7.14618 21.1748 7.48942L23.2238 9.53868C23.5112 9.82532 23.6517 10.2388 23.6 10.6425L22.8897 16.0772C22.8014 16.7595 23.0296 17.43 23.5161 17.9167L28.7576 23.1581L26.5795 25.3364L24.7111 23.4679C24.3678 23.1248 23.8114 23.1248 23.4682 23.4679C23.1249 23.8113 23.1249 24.3676 23.4682 24.711L25.3366 26.5794L23.1585 28.7577L17.9167 23.5159C17.43 23.0293 16.7597 22.8009 16.0763 22.8897L10.6449 23.5996C10.2392 23.6513 9.82556 23.5111 9.5381 23.2228L2.14626 15.8321C1.82212 15.508 1.69004 15.0474 1.79282 14.6007L2.84985 10.0223C2.9027 9.79356 3.08317 9.71856 3.15829 9.69712C3.2334 9.67555 3.42594 9.64333 3.5913 9.80833L9.14247 15.362C9.56915 15.7885 10.1979 15.9683 10.7806 15.8312L13.8144 15.1313C14.4738 14.9784 14.9786 14.4737 15.1319 13.813L15.8306 10.7839C15.9684 10.198 15.789 9.56891 15.3621 9.142L9.80915 3.59176C9.64333 3.42571 9.67556 3.23305 9.69712 3.15793C9.7188 3.0827 9.79357 2.90235 10.0223 2.84949L14.6001 1.7927C15.0477 1.68981 15.5082 1.82176 15.8321 2.14578L18.2743 4.58903C18.6176 4.9325 19.174 4.93262 19.5173 4.58938C19.8607 4.24614 19.8608 3.68985 19.5176 3.34649L17.0751 0.902891C16.3199 0.147851 15.2471 -0.160001 14.2053 0.0798823L9.62692 1.1368C8.83685 1.31926 8.23157 1.89336 8.00774 2.67266C7.78392 3.45184 7.99239 4.25961 8.56591 4.8343L14.1185 10.3851L13.4181 13.4188L10.3855 14.1191L4.83372 8.56508C4.25997 7.99227 3.45196 7.78403 2.6729 8.00751C1.89348 8.23133 1.31938 8.83673 1.13692 9.6268L0.07977 14.2058C-0.159879 15.2472 0.147856 16.3199 0.90313 17.0751L8.29415 24.465Z" fill="black"/>
<path d="M51.7057 35.5343C51.0362 34.8633 50.0738 34.5354 49.1303 34.6574L43.695 35.3665C43.56 35.3847 43.4225 35.3374 43.3265 35.2412L38.085 29.9998L43.3275 24.7573C43.4233 24.6615 43.5611 24.6143 43.6951 24.6323L49.1316 25.3413C50.0721 25.4638 51.0342 25.1361 51.7045 24.4659L52.8237 23.3479C52.9887 23.1831 53.0815 22.9594 53.0815 22.7262V22.725C53.0815 22.2396 52.688 21.8467 52.2026 21.8467C51.9535 21.8467 51.7283 21.9506 51.5685 22.1173L50.462 23.2225C50.1744 23.5102 49.7617 23.6514 49.3584 23.5982L43.9221 22.8892C43.2505 22.8015 42.5634 23.0355 42.0846 23.5143L23.5145 42.0844C23.0359 42.5632 22.8022 43.2501 22.8895 43.922L23.5985 49.3579C23.651 49.7614 23.5105 50.174 23.2229 50.4617L15.8303 57.8543C15.5074 58.178 15.0471 58.3092 14.6005 58.2071L10.0222 57.1501C9.79335 57.0973 9.7187 56.9169 9.69713 56.8418C9.67569 56.7669 9.64381 56.5753 9.80963 56.4098L15.3617 50.8576C15.7928 50.4266 15.9682 49.814 15.8311 49.2182L15.1319 46.1884C14.9826 45.5353 14.4642 45.0169 13.8131 44.8682L10.7811 44.1685C10.1857 44.0315 9.57315 44.2068 9.14225 44.6378L3.58955 50.1905C3.42432 50.3558 3.2326 50.3239 3.15795 50.3025C3.08283 50.281 2.90248 50.2063 2.84963 49.9774L1.79283 45.4C1.68994 44.9523 1.82166 44.4924 2.14603 44.1689L9.53799 36.777C9.82569 36.4893 10.2384 36.3485 10.6415 36.4013L16.0779 37.1102C16.7495 37.1978 17.4366 36.964 17.9151 36.4854L19.0765 35.3252C19.2415 35.1605 19.3342 34.9356 19.3342 34.7024C19.3342 34.217 18.9407 33.8241 18.4553 33.8241C18.2061 33.8241 17.9811 33.9279 17.8212 34.0948L16.6725 35.2423C16.5767 35.338 16.4394 35.3849 16.3049 35.3673L10.8684 34.6582C9.92764 34.5356 8.96577 34.8634 8.2951 35.534L0.903729 42.925C0.148104 43.6787 -0.159982 44.7511 0.0797836 45.7943L1.13682 50.3727C1.3167 51.1517 1.90568 51.7723 2.67408 51.9923C3.45338 52.2149 4.26057 52.0058 4.83291 51.4328L10.3862 45.8812L13.4187 46.5818L14.1187 49.6145L8.56709 55.1662C7.99346 55.739 7.78416 56.5463 8.00717 57.3256C8.22713 58.0939 8.84776 58.683 9.6267 58.8627L14.2059 59.9199C14.4388 59.9733 14.6729 59.9996 14.9048 59.9996C15.7112 59.9996 16.4889 59.6828 17.0737 59.0966L24.4657 51.7046C25.1364 51.0339 25.4638 50.0719 25.3414 49.131L24.6325 43.6951C24.615 43.5605 24.6618 43.4229 24.7574 43.3272L29.9999 38.0847L35.2414 43.3261C35.3375 43.4222 35.3843 43.56 35.3666 43.6952L34.6574 49.1308C34.5355 50.0733 34.8633 51.0356 35.5337 51.7044L42.9251 59.0971C43.511 59.683 44.2881 59.9993 45.0935 59.9993C45.326 59.9993 45.561 59.9728 45.7942 59.919L50.3732 58.8632C51.1634 58.6806 51.7686 58.106 51.9921 57.3262C52.2157 56.5466 52.0069 55.739 51.4336 55.1657L45.8813 49.6139L46.5813 46.5806L49.6142 45.8804L55.1659 51.4335C55.7392 52.0065 56.5466 52.2153 57.3264 51.9919C58.1063 51.7683 58.6807 51.163 58.8632 50.3726L59.919 45.794C60.1594 44.7525 59.8521 43.6799 59.097 42.9246L51.7057 35.5343ZM58.2068 45.3989L57.151 49.9774C57.0982 50.206 56.9175 50.2807 56.8424 50.3023C56.767 50.3239 56.5747 50.356 56.4093 50.1906L50.8574 44.6376C50.4251 44.2055 49.812 44.0301 49.2192 44.1683L46.1862 44.8679C45.5359 45.0182 45.0186 45.5354 44.8683 46.1861L44.169 49.2171C44.0305 49.8119 44.2058 50.425 44.638 50.8571L50.1909 56.4087C50.3564 56.5741 50.3242 56.7667 50.3026 56.8417C50.2811 56.9171 50.2062 57.0978 49.978 57.1504L45.3992 58.2062C44.9522 58.3094 44.4919 58.1779 44.1681 57.8541L36.776 50.4607C36.4886 50.1741 36.3483 49.7611 36.4007 49.3571L37.1097 43.9232C37.1979 43.2505 36.9642 42.5625 36.4845 42.0829L31.243 36.8414L33.4211 34.6634L35.2891 36.5316C35.4607 36.7031 35.6857 36.7889 35.9106 36.7889C36.1355 36.7889 36.3605 36.7031 36.532 36.5316C36.8753 36.1882 36.8753 35.6319 36.532 35.2886L34.6639 33.4205L36.842 31.2424L42.0834 36.4839C42.5632 36.9636 43.2511 37.1976 43.9231 37.1091L49.3566 36.4002C49.7615 36.3472 50.1745 36.4881 50.462 36.7763L57.8544 44.1674C58.1783 44.4914 58.3101 44.9517 58.2068 45.3989Z" fill="black"/>
<path d="M35.2892 23.4673L23.4674 35.2891C23.1242 35.6324 23.1242 36.1887 23.4674 36.5321C23.639 36.7036 23.864 36.7894 24.0888 36.7894C24.3137 36.7894 24.5387 36.7036 24.7103 36.5321L36.5321 24.7103C36.8753 24.367 36.8753 23.8107 36.5321 23.4673C36.1889 23.1242 35.6324 23.1242 35.2892 23.4673Z" fill="black"/>
</g>
<defs>
<clipPath id="clip0_335_7">
<rect width="60" height="60" fill="white"/>
</clipPath>
</defs>
</svg>
