<svg width="171" height="40" viewBox="0 0 171 40" fill="none" xmlns="http://www.w3.org/2000/svg">
<path d="M66.9277 20.4946V24.4937H57.9727V33.5H52.7603V11.1123H68.5V15.1113H57.9727V20.4946H66.9277ZM76.0366 16.8545V33.5H70.8242V16.8545H76.0366ZM76.0366 9.50586V12.9922H70.8242V9.50586H76.0366ZM83.7954 16.8545L85.8291 21.7593H85.9146L88.0166 16.8545H93.8442L89.0249 25.0918L94.0151 33.5H88.1875L85.9829 28.4414H85.8804L83.6758 33.5H77.8481L82.8384 25.0918L78.002 16.8545H83.7954ZM96.4077 12.7529H101.586V16.8887H104.406V20.4946H101.586V28.1167C101.586 29.2332 102.036 29.7915 102.936 29.7915C103.494 29.7915 103.996 29.7402 104.44 29.6377L104.816 33.4829C103.756 33.7336 102.691 33.8589 101.62 33.8589C99.877 33.8589 98.5724 33.3975 97.7065 32.4746C96.8407 31.5518 96.4077 30.1105 96.4077 28.1509V20.4946H94.0664V16.8887H96.4077V12.7529ZM112.233 33.8589C110.467 33.8589 109.105 33.3006 108.148 32.1841C107.191 31.0562 106.713 29.3415 106.713 27.04V16.8887H111.908V27.0742C111.908 28.9313 112.586 29.8599 113.942 29.8599C115.047 29.8599 115.902 29.5522 116.505 28.937V16.8887H121.701V33.5342H117.155L116.83 31.5688C115.725 33.0955 114.193 33.8589 112.233 33.8589ZM129.75 33.5H124.538V16.8545H129.442L129.613 19.2983C130.365 17.464 131.505 16.5469 133.031 16.5469C133.578 16.5469 134.057 16.6095 134.467 16.7349L133.937 21.4346L132.057 21.4175C130.895 21.4175 130.126 21.8049 129.75 22.5796V33.5ZM146.43 25.5703V25.2456C146.43 23.6733 146.236 22.5055 145.849 21.7422C145.461 20.9674 144.783 20.5801 143.815 20.5801C142.676 20.5801 141.872 20.9902 141.405 21.8105V28.8003C141.872 29.5067 142.641 29.8599 143.712 29.8599C144.795 29.8599 145.518 29.5238 145.883 28.8516C146.247 28.1794 146.43 27.0856 146.43 25.5703ZM145.148 33.8589C143.382 33.8589 142.015 33.0955 141.046 31.5688L140.705 33.5342H136.193V9.54004H141.405V18.5122C142.374 17.2248 143.616 16.5811 145.131 16.5811C147.25 16.5811 148.862 17.3501 149.967 18.8882C151.072 20.4149 151.625 22.534 151.625 25.2456L151.608 25.5703C151.608 28.1566 151.055 30.1846 149.95 31.6543C148.856 33.124 147.256 33.8589 145.148 33.8589ZM158.427 25.0576V25.3823C158.427 28.3674 159.378 29.8599 161.281 29.8599C163.195 29.8599 164.152 28.3674 164.152 25.3823V25.0576C164.152 22.0726 163.195 20.5801 161.281 20.5801C159.378 20.5801 158.427 22.0726 158.427 25.0576ZM153.231 25.3823V25.0576C153.231 22.5055 153.944 20.4548 155.368 18.9053C156.792 17.3558 158.763 16.5811 161.281 16.5811C163.799 16.5811 165.77 17.3558 167.194 18.9053C168.618 20.4548 169.33 22.5055 169.33 25.0576V25.3823C169.33 27.9458 168.618 30.0023 167.194 31.5518C165.77 33.0898 163.799 33.8589 161.281 33.8589C158.763 33.8589 156.792 33.0898 155.368 31.5518C153.944 30.0137 153.231 27.9572 153.231 25.3823Z" fill="#171717"/>
<g clip-path="url(#clip0_294_1012)">
<path d="M20.0009 6.25305C17.2817 6.25266 14.6235 7.05863 12.3624 8.56904C10.1013 10.0795 8.3389 12.2265 7.29805 14.7385C6.2572 17.2506 5.98466 20.0149 6.51491 22.6819C7.04515 25.3489 8.35436 27.7987 10.277 29.7216C12.1996 31.6445 14.6492 32.954 17.3161 33.4847C19.983 34.0153 22.7474 33.7432 25.2596 32.7027C27.7718 31.6622 29.9191 29.9001 31.4298 27.6392C32.9406 25.3783 33.7469 22.7202 33.7469 20.001C33.7472 18.1957 33.3918 16.408 32.7011 14.74C32.0104 13.0721 30.998 11.5565 29.7215 10.2799C28.445 9.00322 26.9296 7.99052 25.2617 7.29959C23.5939 6.60867 21.8062 6.25305 20.0009 6.25305ZM20.0009 32.3925C17.5496 32.3929 15.1531 31.6664 13.1147 30.3047C11.0763 28.943 9.4875 27.0074 8.54922 24.7427C7.61094 22.478 7.36534 19.986 7.84348 17.5817C8.32163 15.1774 9.50203 12.9689 11.2354 11.2355C12.9688 9.50213 15.1773 8.32172 17.5816 7.84358C19.9859 7.36544 22.478 7.61103 24.7427 8.54931C27.0073 9.48759 28.9429 11.0764 30.3046 13.1148C31.6663 15.1532 32.3928 17.5496 32.3925 20.001C32.3925 23.2875 31.0869 26.4393 28.7631 28.7631C26.4392 31.087 23.2874 32.3925 20.0009 32.3925Z" fill="#E8092E"/>
<path d="M20.0006 8.0932C17.6454 8.09281 15.3429 8.79086 13.3844 10.0991C11.426 11.4073 9.8994 13.2669 8.99782 15.4427C8.09624 17.6185 7.86015 20.0129 8.31939 22.3229C8.77863 24.6329 9.91258 26.7548 11.5778 28.4204C13.2431 30.0859 15.3649 31.2202 17.6748 31.6798C19.9847 32.1395 22.3791 31.9038 24.5551 31.0026C26.7311 30.1013 28.5909 28.5751 29.8995 26.6168C31.208 24.6585 31.9064 22.3562 31.9064 20.001C31.9064 16.8432 30.6521 13.8147 28.4194 11.5816C26.1867 9.34852 23.1584 8.09372 20.0006 8.0932ZM30.3979 20.5321C30.2735 22.7548 29.4434 24.8798 28.0284 26.5984C26.6134 28.317 24.6873 29.5395 22.5298 30.0884V26.4831C20.8955 27.0819 19.1017 27.0819 17.4674 26.4831V30.0963C15.5534 29.6161 13.8153 28.6018 12.4556 27.1717C11.0959 25.7416 10.1707 23.9545 9.78768 22.0187C9.40469 20.0829 9.57974 18.0781 10.2924 16.2379C11.0051 14.3978 12.2261 12.7981 13.813 11.6253C15.4 10.4524 17.2876 9.75477 19.2559 9.61356C21.2241 9.47235 23.192 9.89342 24.9301 10.8277C26.6683 11.762 28.1051 13.171 29.0732 14.8906C30.0412 16.6101 30.5007 18.5694 30.3979 20.54V20.5321Z" fill="#E8092E"/>
<path d="M37.5044 17.7738L40.0001 16.3917L39.1274 13.1359L36.2723 13.1833C35.8181 13.1904 35.3702 13.0761 34.9751 12.852C34.5799 12.628 34.2517 12.3024 34.0246 11.909C33.7975 11.5156 33.6796 11.0686 33.6833 10.6143C33.6869 10.16 33.8118 9.71501 34.0452 9.32524L35.5142 6.87695L33.129 4.48591L30.6808 5.94896C30.2911 6.18248 29.8462 6.30756 29.392 6.31123C28.9377 6.31491 28.4908 6.19705 28.0975 5.96987C27.7041 5.74269 27.3787 5.41445 27.1549 5.01918C26.9311 4.6239 26.8171 4.17597 26.8247 3.72181L26.8701 0.866779L23.6143 -0.00592041L22.2322 2.48976C22.0115 2.88667 21.6888 3.21737 21.2974 3.44761C20.906 3.67785 20.4601 3.79926 20.006 3.79926C19.5519 3.79926 19.106 3.67785 18.7146 3.44761C18.3232 3.21737 18.0005 2.88667 17.7798 2.48976L16.3977 -0.00592041L13.1419 0.866779L13.1893 3.72181C13.1977 4.1778 13.0837 4.62772 12.8591 5.02464C12.6345 5.42156 12.3074 5.75094 11.9122 5.97844C11.5169 6.20593 11.0678 6.3232 10.6117 6.31801C10.1557 6.31283 9.70939 6.18538 9.31938 5.94896L6.87109 4.47999L4.48005 6.87102L5.94903 9.31932C6.18238 9.70908 6.30733 10.1541 6.31095 10.6084C6.31456 11.0627 6.19671 11.5096 5.9696 11.9031C5.74248 12.2965 5.41435 12.6221 5.01916 12.8461C4.62397 13.0702 4.17609 13.1845 3.72187 13.1774L0.866839 13.13L-0.00585938 16.3858L2.48982 17.7679C2.88673 17.9885 3.21743 18.3113 3.44767 18.7027C3.67791 19.0941 3.79932 19.54 3.79932 19.9941C3.79932 20.4482 3.67791 20.894 3.44767 21.2855C3.21743 21.6769 2.88673 21.9996 2.48982 22.2203L-0.00585938 23.6024L0.872762 26.8779L3.72779 26.8325C4.18196 26.8249 4.62989 26.939 5.02516 27.1628C5.42044 27.3865 5.74867 27.712 5.97585 28.1053C6.20303 28.4986 6.32089 28.9456 6.31722 29.3998C6.31354 29.854 6.18847 30.299 5.95495 30.6886L4.48005 33.129L6.86516 35.5141L9.31346 34.0451C9.70322 33.8118 10.1483 33.6868 10.6025 33.6832C11.0568 33.6796 11.5038 33.7974 11.8972 34.0245C12.2906 34.2517 12.6162 34.5798 12.8403 34.975C13.0643 35.3702 13.1787 35.8181 13.1715 36.2723L13.13 39.1194L16.3859 39.9921L17.768 37.4964C17.9886 37.0995 18.3114 36.7688 18.7028 36.5386C19.0942 36.3083 19.54 36.1869 19.9941 36.1869C20.4483 36.1869 20.8941 36.3083 21.2855 36.5386C21.6769 36.7688 21.9997 37.0995 22.2203 37.4964L23.6024 39.9921L26.8701 39.1194L26.8247 36.2644C26.8185 35.8109 26.9336 35.364 27.158 34.9698C27.3823 34.5757 27.7079 34.2486 28.101 34.0223C28.4941 33.7961 28.9404 33.6789 29.394 33.6829C29.8475 33.6869 30.2917 33.812 30.6808 34.0451L33.129 35.5141L35.5142 33.129L34.0452 30.6807C33.8119 30.2914 33.6868 29.8468 33.683 29.3929C33.6791 28.939 33.7966 28.4924 34.0233 28.0992C34.25 27.706 34.5777 27.3805 34.9724 27.1564C35.3671 26.9323 35.8146 26.8178 36.2684 26.8246L39.1234 26.87L39.9961 23.6142L37.5004 22.2321C37.1023 22.0116 36.7705 21.6884 36.5396 21.2961C36.3087 20.9039 36.1872 20.4569 36.1876 20.0018C36.188 19.5467 36.3103 19.0999 36.5419 18.7081C36.7735 18.3163 37.1059 17.9937 37.5044 17.7738ZM20.0011 34.9415C17.0455 34.9419 14.1563 34.0658 11.6987 32.4241C9.24112 30.7823 7.3256 28.4486 6.19439 25.7182C5.06318 22.9877 4.76711 19.9831 5.3436 17.0844C5.9201 14.1856 7.34328 11.5229 9.43314 9.43308C11.523 7.34321 14.1857 5.92004 17.0844 5.34354C19.9832 4.76705 22.9878 5.06312 25.7182 6.19433C28.4487 7.32554 30.7824 9.24106 32.4241 11.6986C34.0659 14.1562 34.942 17.0455 34.9416 20.001C34.9416 23.9635 33.3675 27.7636 30.5656 30.5655C27.7637 33.3674 23.9635 34.9415 20.0011 34.9415Z" fill="#E8092E"/>
<path d="M23.792 14.0441V18.9466L26.2896 17.5527C25.8746 16.1359 24.9948 14.9001 23.792 14.0441Z" fill="#E8092E"/>
<path d="M23.7923 19.7147L19.9994 21.9043L16.2085 19.7147V14.0441C15.2917 14.6948 14.5577 15.5705 14.0771 16.5869C13.5965 17.6033 13.3855 18.7262 13.4644 19.8477C13.5432 20.9692 13.9093 22.0516 14.5274 22.9907C15.1455 23.9299 15.9948 24.6942 16.9936 25.2102C17.9925 25.7262 19.1073 25.9766 20.2309 25.9372C21.3545 25.8978 22.4491 25.57 23.4094 24.9853C24.3696 24.4006 25.1633 23.5787 25.7142 22.5986C26.265 21.6185 26.5544 20.5132 26.5545 19.3889C26.5539 18.9989 26.5189 18.6098 26.4499 18.226L23.7923 19.7147Z" fill="#E8092E"/>
</g>
<defs>
<clipPath id="clip0_294_1012">
<rect width="40" height="40" fill="white"/>
</clipPath>
</defs>
</svg>
