<svg width="40" height="40" viewBox="0 0 40 40" fill="none" xmlns="http://www.w3.org/2000/svg">
<path d="M39.9787 30.5178L37.4186 8.75541C37.2347 7.19004 35.9073 6.00952 34.331 6.00952H10.8614C10.5377 6.00952 10.2754 6.2718 10.2754 6.59548C10.2754 6.91917 10.5377 7.18144 10.8614 7.18144H34.331C35.313 7.18144 36.14 7.91686 36.2546 8.89213L38.8149 30.6548C38.8795 31.2037 38.7059 31.7555 38.3386 32.1686C37.9714 32.5816 37.4439 32.8184 36.8913 32.8184H31.3389C31.4215 32.609 31.4674 32.3812 31.4674 32.1429C31.4674 31.9046 31.4215 31.6769 31.339 31.4675H36.1819C36.5286 31.4675 36.8599 31.3189 37.0905 31.0597C37.3214 30.8003 37.4307 30.4537 37.3904 30.1083L34.9786 9.60646C34.9062 8.99401 34.3868 8.5322 33.7701 8.5322H29.2738C28.9501 8.5322 28.6879 8.79447 28.6879 9.11816C28.6879 9.44184 28.9501 9.70412 29.2738 9.70412H33.7701C33.7925 9.70412 33.8121 9.72162 33.8147 9.74365L36.2264 30.2447C36.2271 30.2497 36.2288 30.2651 36.2151 30.2805C36.2017 30.2955 36.1873 30.2955 36.1818 30.2955H30.2057V27.0792L31.9113 28.1451C32.0078 28.2055 32.1151 28.2343 32.2213 28.2343C32.4166 28.2343 32.6076 28.1366 32.7187 27.9588C32.8902 27.6844 32.8068 27.3228 32.5323 27.1513L22.4394 20.8434C22.1653 20.672 21.8035 20.7552 21.632 21.0298C21.4605 21.3042 21.5439 21.6657 21.8184 21.8372L29.0337 26.3468V30.2956H15.6972V27.0793L17.4028 28.1453C17.4992 28.2056 17.6066 28.2344 17.7128 28.2344C17.9081 28.2344 18.099 28.1368 18.2102 27.959C18.3817 27.6846 18.2983 27.323 18.0238 27.1515L7.93098 20.8435C7.65683 20.6721 7.2951 20.7554 7.12353 21.0299C6.95204 21.3043 7.03548 21.6659 7.30994 21.8374L14.5253 26.3469V30.2957H10.3551C10.0314 30.2957 9.7691 30.558 9.7691 30.8816C9.7691 31.2053 10.0314 31.4676 10.3551 31.4676H13.392C13.3095 31.6769 13.2637 31.9047 13.2637 32.1429C13.2637 32.3813 13.3095 32.6091 13.3921 32.8184H3.10869C2.55609 32.8184 2.02857 32.5816 1.66136 32.1686C1.29408 31.7556 1.12048 31.2038 1.1851 30.6548L3.74543 8.89213C3.85989 7.91686 4.68687 7.18144 5.66902 7.18144H8.12693C8.45061 7.18144 8.71289 6.91917 8.71289 6.59548C8.71289 6.2718 8.45061 6.00952 8.12693 6.00952H5.66902C4.09271 6.00952 2.76539 7.18996 2.58148 8.75533L0.0213015 30.5177C-0.0824525 31.3988 0.196074 32.2843 0.78555 32.9473C1.37495 33.6101 2.2217 33.9904 3.10869 33.9904H36.8912C37.7783 33.9904 38.625 33.6102 39.2144 32.9473C39.8039 32.2844 40.0825 31.3989 39.9787 30.5178ZM30.2954 32.1429C30.2954 32.5144 29.9939 32.8167 29.6228 32.8184H29.6167C29.2455 32.8167 28.9441 32.5144 28.9441 32.1429C28.9441 31.7723 29.244 31.4708 29.6137 31.4675H29.6257C29.9955 31.4709 30.2954 31.7724 30.2954 32.1429ZM27.9007 32.8184H16.8304C16.913 32.6091 16.9588 32.3813 16.9588 32.1429C16.9588 31.9047 16.913 31.677 16.8305 31.4676H27.9006C27.8181 31.6769 27.7722 31.9047 27.7722 32.1429C27.7722 32.3813 27.8181 32.6091 27.9007 32.8184ZM14.4356 32.1429C14.4356 31.7723 14.7355 31.4708 15.1052 31.4675H15.1173C15.4871 31.4708 15.7868 31.7723 15.7868 32.1429C15.7868 32.5144 15.4854 32.8167 15.1142 32.8184H15.1082C14.7371 32.8168 14.4356 32.5144 14.4356 32.1429Z" fill="white"/>
<path d="M27.1255 9.11819C27.1255 8.7945 26.8632 8.53223 26.5395 8.53223H6.23007C5.61341 8.53223 5.09393 8.99404 5.02159 9.6068L2.60978 30.1088C2.56946 30.4537 2.67884 30.8003 2.90971 31.0597C3.14034 31.3189 3.47153 31.4676 3.81834 31.4676H7.62083C7.94451 31.4676 8.20679 31.2053 8.20679 30.8816C8.20679 30.5579 7.94451 30.2956 7.62083 30.2956H3.81826C3.81287 30.2956 3.79841 30.2956 3.78498 30.2806C3.7713 30.2653 3.7731 30.2499 3.77357 30.2453L6.18538 9.74407C6.18804 9.72173 6.20765 9.70422 6.22999 9.70422H26.5394C26.8631 9.70415 27.1255 9.44187 27.1255 9.11819Z" fill="white"/>
<path d="M10.8887 16.4068C11.0386 16.4068 11.1886 16.3496 11.3031 16.2352L12.5297 15.0086C12.7585 14.7797 12.7585 14.4087 12.5297 14.1799C12.3008 13.9511 11.9298 13.9511 11.701 14.1799L10.4744 15.4065C10.2455 15.6354 10.2455 16.0063 10.4744 16.2352C10.5888 16.3496 10.7388 16.4068 10.8887 16.4068Z" fill="white"/>
<path d="M10.8011 11.894C10.5721 11.6652 10.2012 11.6652 9.97236 11.894L8.18823 13.6781C7.95939 13.907 7.95939 14.278 8.18823 14.5068C8.30269 14.6212 8.45269 14.6784 8.60262 14.6784C8.75255 14.6784 8.90255 14.6212 9.01701 14.5068L10.8011 12.7227C11.0299 12.4938 11.0299 12.1228 10.8011 11.894Z" fill="white"/>
</svg>
