<svg width="65" height="66" viewBox="0 0 65 66" fill="none" xmlns="http://www.w3.org/2000/svg">
<g clip-path="url(#clip0_272_704)">
<path d="M55.4809 10.0191C49.3424 3.88064 41.1809 0.5 32.5 0.5C23.8191 0.5 15.6576 3.88064 9.51907 10.0191C3.38064 16.1576 0 24.3191 0 33C0 41.6809 3.38064 49.8424 9.51907 55.9809C15.6576 62.1194 23.8191 65.5 32.5 65.5C40.3324 65.5 47.8995 62.6736 53.8076 57.5416C54.2045 57.1966 54.2468 56.5954 53.902 56.1984C53.5572 55.8014 52.9558 55.7591 52.5587 56.1039C46.9972 60.9351 39.8736 63.5957 32.5 63.5957C24.3278 63.5957 16.6446 60.4132 10.8657 54.6343C5.08676 48.8554 1.9043 41.1722 1.9043 33C1.9043 24.8278 5.08688 17.1444 10.8657 11.3657C16.6444 5.58688 24.3278 2.4043 32.5 2.4043C40.6722 2.4043 48.3554 5.58676 54.1343 11.3657C59.9132 17.1446 63.0957 24.8278 63.0957 33C63.0957 40.3736 60.435 47.4972 55.6039 53.0588C55.2591 53.4558 55.3014 54.0571 55.6984 54.402C56.0955 54.7469 56.6969 54.7048 57.0417 54.3076C62.1736 48.3997 65 40.8324 65 33C65 24.3191 61.6194 16.1576 55.4809 10.0191Z" fill="#E8092E"/>
<path d="M12.2054 14.5013C11.805 14.1607 11.204 14.209 10.8632 14.6097C6.50479 19.7327 4.10449 26.2638 4.10449 33C4.10449 40.5849 7.05806 47.7157 12.4212 53.0788C17.7843 58.442 24.9152 61.3957 32.5001 61.3957C40.085 61.3957 47.2159 58.442 52.579 53.0788C57.9421 47.7157 60.8957 40.5849 60.8957 33C60.8957 26.2638 58.4954 19.7327 54.1371 14.6097C53.7964 14.2092 53.1955 14.1607 52.795 14.5013C52.3944 14.8422 52.3459 15.4431 52.6867 15.8435C56.7523 20.6226 58.9914 26.7155 58.9914 33C58.9914 47.6074 47.1075 59.4914 32.5001 59.4914C17.8927 59.4914 6.00879 47.6074 6.00879 33C6.00879 26.7155 8.24786 20.6226 12.3135 15.8435C12.6543 15.4431 12.6058 14.8422 12.2054 14.5013Z" fill="#E8092E"/>
<path d="M15.3436 12.8137C20.1227 8.74786 26.2156 6.50879 32.5001 6.50879C38.7845 6.50879 44.8775 8.74786 49.6565 12.8137C49.8357 12.966 50.0549 13.0405 50.273 13.0405C50.5425 13.0405 50.8103 12.9268 50.9987 12.7052C51.3394 12.3048 51.2909 11.7038 50.8904 11.3631C45.7673 7.00479 39.2362 4.60449 32.5001 4.60449C25.7639 4.60449 19.2328 7.00479 14.1096 11.3631C13.7091 11.704 13.6606 12.3048 14.0014 12.7052C14.3421 13.106 14.9432 13.1544 15.3436 12.8137Z" fill="#E8092E"/>
<path d="M11.4683 45.1453C11.7307 45.5978 12.3088 45.7531 12.7627 45.4948C12.763 45.4947 15.4288 43.9558 15.4288 43.9558C15.8842 43.6929 16.0403 43.1105 15.7773 42.6552C15.5143 42.1998 14.9321 42.0439 14.4767 42.3067L12.6587 43.3563C12.0457 42.1859 11.5396 40.9646 11.1446 39.7082L11.9362 39.4961C12.4442 39.3601 12.7456 38.8378 12.6096 38.3299C12.4736 37.8219 11.9511 37.5199 11.4434 37.6566L10.6515 37.8688C10.3652 36.5849 10.1917 35.2742 10.1353 33.9521H12.2383C12.7641 33.9521 13.1904 33.526 13.1904 33C13.1904 32.474 12.7641 32.0478 12.2383 32.0478H10.134C10.1904 30.7085 10.3648 29.3992 10.6474 28.1301L11.4434 28.3433C11.5259 28.3656 11.6088 28.3761 11.6905 28.3761C12.1108 28.3761 12.4956 28.0955 12.6096 27.6701C12.7457 27.1622 12.4442 26.64 11.9362 26.5039L11.1399 26.2905C11.5391 25.0223 12.049 23.803 12.6571 22.6426L14.4767 23.6932C14.6266 23.7798 14.7904 23.8209 14.9519 23.8209C15.2809 23.8209 15.601 23.6501 15.7773 23.3447C16.0403 22.8893 15.8842 22.307 15.4288 22.0441L13.6113 20.9947C14.3218 19.8807 15.1285 18.8337 16.0189 17.8648L16.5929 18.4387C16.7787 18.6246 17.0225 18.7175 17.2661 18.7175C17.5097 18.7175 17.7535 18.6246 17.9393 18.4386C18.3112 18.0667 18.3112 17.4638 17.9393 17.0921L17.3655 16.5183C18.3344 15.6279 19.3814 14.8212 20.4954 14.1106L21.5448 15.9282C21.7212 16.2337 22.0412 16.4044 22.3703 16.4044C22.5317 16.4044 22.6955 16.3633 22.8454 16.2767C23.3008 16.0138 23.4569 15.4315 23.1939 14.9761L22.1434 13.1565C23.3038 12.5483 24.523 12.0385 25.7913 11.6392L26.0047 12.4356C26.1187 12.861 26.5033 13.1416 26.9238 13.1416C27.0054 13.1416 27.0883 13.1311 27.1709 13.1088C27.6788 12.9728 27.9802 12.4506 27.8441 11.9427L27.6308 11.1468C28.8998 10.8642 30.2091 10.6898 31.5485 10.6334V12.7375C31.5485 13.2635 31.9748 13.6897 32.5006 13.6897C33.0265 13.6897 33.4528 13.2635 33.4528 12.7375V10.6336C34.7921 10.69 36.1013 10.8643 37.3704 11.147L37.1571 11.9429C37.021 12.4508 37.3224 12.9729 37.8304 13.1091C37.9129 13.1313 37.9959 13.1419 38.0774 13.1419C38.4979 13.1419 38.8824 12.8613 38.9966 12.4359L39.21 11.6395C40.4781 12.0388 41.6975 12.5486 42.8578 13.1567L41.8073 14.9763C41.5444 15.4317 41.7004 16.014 42.1558 16.277C42.3057 16.3635 42.4695 16.4047 42.631 16.4047C42.96 16.4047 43.2801 16.2339 43.4564 15.9285L44.5058 14.1109C45.62 14.8214 46.6668 15.6281 47.6357 16.5186L47.0619 17.0924C46.69 17.4642 46.69 18.0671 47.0619 18.4388C47.2477 18.6248 47.4915 18.7178 47.7351 18.7178C47.9787 18.7178 48.2225 18.6248 48.4083 18.439L48.9823 17.865C49.8728 18.8339 50.6794 19.8808 51.39 20.9949L49.5724 22.0443C49.117 22.3072 48.961 22.8896 49.2239 23.345C49.4002 23.6504 49.7203 23.8212 50.0493 23.8212C50.2108 23.8212 50.3746 23.78 50.5245 23.6934L52.3442 22.6429C52.9523 23.8033 53.4622 25.0225 53.8614 26.2908L53.065 26.5042C52.557 26.6401 52.2557 27.1624 52.3916 27.6704C52.5056 28.0958 52.8904 28.3764 53.3108 28.3764C53.3924 28.3764 53.4753 28.3658 53.5578 28.3436L54.3538 28.1303C54.6364 29.3995 54.8109 30.7086 54.8672 32.0481H52.7631C52.2373 32.0481 51.8109 32.4743 51.8109 33.0002C51.8109 33.5262 52.2373 33.9524 52.7631 33.9524H54.8661C54.8097 35.2745 54.6362 36.5851 54.3499 37.869L53.558 37.6569C53.0503 37.5202 52.5279 37.8222 52.3918 38.3301C52.2557 38.8381 52.5572 39.3602 53.0651 39.4963L53.8568 39.7084C53.4617 40.9649 52.9557 42.1862 52.3426 43.3566L50.5247 42.3069C50.0693 42.0441 49.4871 42.2 49.224 42.6554C48.9611 43.1108 49.1171 43.6931 49.5725 43.956L52.2298 45.4901C52.6764 45.7524 53.2674 45.6057 53.5331 45.1455C55.6659 41.4675 56.7932 37.2678 56.7932 33.0002C56.7932 19.6053 45.8957 8.70776 32.5007 8.70776C19.1058 8.70776 8.20801 19.6052 8.20801 33.0001C8.20801 37.2676 9.33535 41.4674 11.4683 45.1453Z" fill="#E8092E"/>
<path d="M44.5987 20.9006C44.2269 20.5289 43.624 20.5289 43.2523 20.9006L34.5946 29.5584C33.9837 29.1852 33.2664 28.9699 32.4997 28.9699C30.2775 28.9699 28.4697 30.7777 28.4697 32.9999C28.4697 35.2221 30.2775 37.0299 32.4997 37.0299C34.7219 37.0299 36.5297 35.2221 36.5297 32.9999C36.5297 32.2332 36.3144 31.5159 35.9412 30.905L44.5989 22.2472C44.9706 21.8754 44.9706 21.2726 44.5987 20.9006ZM32.4996 35.1256C31.3274 35.1256 30.3739 34.1719 30.3739 32.9999C30.3739 31.8279 31.3274 30.8742 32.4996 30.8742C33.6718 30.8742 34.6253 31.8279 34.6253 32.9999C34.6253 34.1719 33.6718 35.1256 32.4996 35.1256Z" fill="#E8092E"/>
<path d="M44.7377 32.9999C44.7377 31.3435 43.3901 29.9958 41.7336 29.9958C40.0771 29.9958 38.7295 31.3435 38.7295 32.9999C38.7295 34.6564 40.0771 36.004 41.7336 36.004C43.3901 36.004 44.7377 34.6564 44.7377 32.9999ZM40.6338 32.9999C40.6338 32.3936 41.1271 31.9001 41.7336 31.9001C42.34 31.9001 42.8334 32.3936 42.8334 32.9999C42.8334 33.6063 42.34 34.0997 41.7336 34.0997C41.1271 34.0997 40.6338 33.6063 40.6338 32.9999Z" fill="#E8092E"/>
<path d="M26.2709 32.9999C26.2709 31.3435 24.9233 29.9958 23.2668 29.9958C21.6103 29.9958 20.2627 31.3435 20.2627 32.9999C20.2627 34.6564 21.6103 36.004 23.2668 36.004C24.9233 36.004 26.2709 34.6564 26.2709 32.9999ZM23.2668 34.0997C22.6605 34.0997 22.167 33.6063 22.167 32.9999C22.167 32.3936 22.6603 31.9001 23.2668 31.9001C23.8732 31.9001 24.3666 32.3936 24.3666 32.9999C24.3666 33.6063 23.8731 34.0997 23.2668 34.0997Z" fill="#E8092E"/>
<path d="M25.0615 49.0318H39.9377C40.887 49.0318 41.6593 48.2594 41.6593 47.31V43.7193C41.6593 42.7699 40.887 41.9976 39.9377 41.9976H25.0615C24.1121 41.9976 23.3398 42.7699 23.3398 43.7193V47.31C23.3398 48.2594 24.1121 49.0318 25.0615 49.0318ZM31.5474 47.1275H29.3479V43.902H31.5474V47.1275ZM33.4517 43.902H35.6511V47.1275H33.4517V43.902ZM39.7549 47.1275H37.5554V43.902H39.7549V47.1275ZM25.2441 43.902H27.4436V47.1275H25.2441V43.902Z" fill="#E8092E"/>
</g>
<defs>
<clipPath id="clip0_272_704">
<rect width="65" height="65" fill="white" transform="translate(0 0.5)"/>
</clipPath>
</defs>
</svg>
