<svg width="60" height="44" viewBox="0 0 60 44" fill="none" xmlns="http://www.w3.org/2000/svg">
<path d="M6.56061 43.3189V32.7455L7.57045 32.6216C9.49025 32.4482 11.3701 32.0467 12.7568 30.2212C14.113 28.4359 14.9277 25.3757 15.0526 20.107L15.0647 19.5952H14.5527H0.5V0.5H25.8636V18.1141C25.8636 27.8727 24.4527 34.0848 21.3803 37.8389C17.8872 42.107 12.6329 42.9838 7.7132 43.2578C7.71287 43.2578 7.71253 43.2578 7.7122 43.2579L6.56061 43.3189ZM40.197 43.3172V32.7417L41.112 32.6214C43.0318 32.4478 44.8887 32.0455 46.2504 30.2175C47.5801 28.4325 48.3699 25.3733 48.4947 20.107L48.5068 19.5952H47.9949H34.1364V0.5H59.5V18.1141C59.5 27.8694 58.0417 34.0835 54.9685 37.8389C51.4756 42.1068 46.173 42.9838 41.2516 43.2579L41.2513 43.2579L40.197 43.3172Z" stroke="#E8092E"/>
</svg>
